<mxfile host="app.diagrams.net" modified="2021-07-04T04:07:49.290Z" agent="5.0 (Windows NT 10.0; Win64; x64) AppleWebKit/537.36 (KHTML, like Gecko) Chrome/91.0.4472.124 Safari/537.36" etag="e2hV6miFMg5bOz4MTKn8" version="14.8.4" type="github">
  <diagram id="aG1ec5TokzoATQdfZ7hz" name="Page-1">
    <mxGraphModel dx="1209" dy="671" grid="1" gridSize="10" guides="1" tooltips="1" connect="1" arrows="1" fold="1" page="1" pageScale="1" pageWidth="583" pageHeight="827" math="0" shadow="0">
      <root>
        <mxCell id="0" />
        <mxCell id="1" parent="0" />
        <mxCell id="KDo_k73m9y_OoICIJDoo-9" value="" style="edgeStyle=orthogonalEdgeStyle;rounded=0;orthogonalLoop=1;jettySize=auto;html=1;" edge="1" parent="1" source="KDo_k73m9y_OoICIJDoo-1" target="KDo_k73m9y_OoICIJDoo-5">
          <mxGeometry relative="1" as="geometry" />
        </mxCell>
        <mxCell id="KDo_k73m9y_OoICIJDoo-1" value="Aseguradora de autos" style="rounded=0;whiteSpace=wrap;html=1;fillColor=#b1ddf0;strokeColor=#10739e;" vertex="1" parent="1">
          <mxGeometry x="90" y="190" width="120" height="60" as="geometry" />
        </mxCell>
        <mxCell id="KDo_k73m9y_OoICIJDoo-2" value="Contratantes" style="rounded=0;whiteSpace=wrap;html=1;fillColor=#b1ddf0;strokeColor=#10739e;" vertex="1" parent="1">
          <mxGeometry x="380" y="190" width="120" height="60" as="geometry" />
        </mxCell>
        <mxCell id="KDo_k73m9y_OoICIJDoo-3" value="Autos" style="rounded=0;whiteSpace=wrap;html=1;fillColor=#b1ddf0;strokeColor=#10739e;" vertex="1" parent="1">
          <mxGeometry x="200" y="330" width="120" height="60" as="geometry" />
        </mxCell>
        <mxCell id="KDo_k73m9y_OoICIJDoo-4" value="Accidentes" style="rounded=0;whiteSpace=wrap;html=1;fillColor=#b1ddf0;strokeColor=#10739e;" vertex="1" parent="1">
          <mxGeometry x="200" y="540" width="120" height="60" as="geometry" />
        </mxCell>
        <mxCell id="KDo_k73m9y_OoICIJDoo-5" value="aseguran" style="rhombus;whiteSpace=wrap;html=1;strokeColor=#10739e;fillColor=#BCEBFF;" vertex="1" parent="1">
          <mxGeometry x="251.5" y="190" width="80" height="60" as="geometry" />
        </mxCell>
        <mxCell id="KDo_k73m9y_OoICIJDoo-7" value="sufren" style="rhombus;whiteSpace=wrap;html=1;strokeColor=#10739e;fillColor=#BCEBFF;" vertex="1" parent="1">
          <mxGeometry x="220" y="430" width="80" height="60" as="geometry" />
        </mxCell>
        <mxCell id="KDo_k73m9y_OoICIJDoo-8" value="tienen" style="rhombus;whiteSpace=wrap;html=1;strokeColor=#10739e;fillColor=#BCEBFF;" vertex="1" parent="1">
          <mxGeometry x="400" y="330" width="80" height="60" as="geometry" />
        </mxCell>
        <mxCell id="KDo_k73m9y_OoICIJDoo-10" value="" style="endArrow=classic;startArrow=classic;html=1;entryX=0;entryY=0.5;entryDx=0;entryDy=0;exitX=1;exitY=0.5;exitDx=0;exitDy=0;" edge="1" parent="1" source="KDo_k73m9y_OoICIJDoo-5" target="KDo_k73m9y_OoICIJDoo-2">
          <mxGeometry width="50" height="50" relative="1" as="geometry">
            <mxPoint x="270" y="360" as="sourcePoint" />
            <mxPoint x="320" y="310" as="targetPoint" />
          </mxGeometry>
        </mxCell>
        <mxCell id="KDo_k73m9y_OoICIJDoo-11" value="" style="endArrow=classic;html=1;entryX=0.5;entryY=0;entryDx=0;entryDy=0;" edge="1" parent="1" source="KDo_k73m9y_OoICIJDoo-2" target="KDo_k73m9y_OoICIJDoo-8">
          <mxGeometry width="50" height="50" relative="1" as="geometry">
            <mxPoint x="270" y="360" as="sourcePoint" />
            <mxPoint x="440" y="300" as="targetPoint" />
          </mxGeometry>
        </mxCell>
        <mxCell id="KDo_k73m9y_OoICIJDoo-12" value="" style="endArrow=classic;startArrow=classic;html=1;entryX=0;entryY=0.5;entryDx=0;entryDy=0;exitX=1;exitY=0.5;exitDx=0;exitDy=0;" edge="1" parent="1" source="KDo_k73m9y_OoICIJDoo-3" target="KDo_k73m9y_OoICIJDoo-8">
          <mxGeometry width="50" height="50" relative="1" as="geometry">
            <mxPoint x="341.5" y="230" as="sourcePoint" />
            <mxPoint x="390" y="230" as="targetPoint" />
          </mxGeometry>
        </mxCell>
        <mxCell id="KDo_k73m9y_OoICIJDoo-13" value="" style="endArrow=classic;html=1;exitX=0.5;exitY=1;exitDx=0;exitDy=0;entryX=0.5;entryY=0;entryDx=0;entryDy=0;" edge="1" parent="1" source="KDo_k73m9y_OoICIJDoo-3" target="KDo_k73m9y_OoICIJDoo-7">
          <mxGeometry width="50" height="50" relative="1" as="geometry">
            <mxPoint x="270" y="360" as="sourcePoint" />
            <mxPoint x="272" y="430" as="targetPoint" />
          </mxGeometry>
        </mxCell>
        <mxCell id="KDo_k73m9y_OoICIJDoo-14" value="" style="endArrow=classic;startArrow=classic;html=1;exitX=0.5;exitY=1;exitDx=0;exitDy=0;" edge="1" parent="1" source="KDo_k73m9y_OoICIJDoo-7" target="KDo_k73m9y_OoICIJDoo-4">
          <mxGeometry width="50" height="50" relative="1" as="geometry">
            <mxPoint x="270" y="360" as="sourcePoint" />
            <mxPoint x="320" y="310" as="targetPoint" />
          </mxGeometry>
        </mxCell>
        <mxCell id="KDo_k73m9y_OoICIJDoo-16" value="1:M" style="text;html=1;strokeColor=none;fillColor=none;align=center;verticalAlign=middle;whiteSpace=wrap;rounded=0;" vertex="1" parent="1">
          <mxGeometry x="210" y="200" width="40" height="20" as="geometry" />
        </mxCell>
        <mxCell id="KDo_k73m9y_OoICIJDoo-17" value="1:M" style="text;html=1;strokeColor=none;fillColor=none;align=center;verticalAlign=middle;whiteSpace=wrap;rounded=0;" vertex="1" parent="1">
          <mxGeometry x="252" y="403.5" width="40" height="20" as="geometry" />
        </mxCell>
        <mxCell id="KDo_k73m9y_OoICIJDoo-18" value="1:M" style="text;html=1;strokeColor=none;fillColor=none;align=center;verticalAlign=middle;whiteSpace=wrap;rounded=0;" vertex="1" parent="1">
          <mxGeometry x="430" y="280" width="40" height="20" as="geometry" />
        </mxCell>
        <mxCell id="KDo_k73m9y_OoICIJDoo-19" value="1:1" style="text;html=1;strokeColor=none;fillColor=none;align=center;verticalAlign=middle;whiteSpace=wrap;rounded=0;" vertex="1" parent="1">
          <mxGeometry x="331.5" y="200" width="40" height="20" as="geometry" />
        </mxCell>
        <mxCell id="KDo_k73m9y_OoICIJDoo-21" value="1:1" style="text;html=1;strokeColor=none;fillColor=none;align=center;verticalAlign=middle;whiteSpace=wrap;rounded=0;" vertex="1" parent="1">
          <mxGeometry x="252" y="500" width="40" height="20" as="geometry" />
        </mxCell>
        <mxCell id="KDo_k73m9y_OoICIJDoo-22" value="1:1" style="text;html=1;strokeColor=none;fillColor=none;align=center;verticalAlign=middle;whiteSpace=wrap;rounded=0;" vertex="1" parent="1">
          <mxGeometry x="340" y="360" width="40" height="20" as="geometry" />
        </mxCell>
        <mxCell id="KDo_k73m9y_OoICIJDoo-23" value="Nombre" style="ellipse;whiteSpace=wrap;html=1;strokeColor=#23445d;fillColor=#E5FAE4;" vertex="1" parent="1">
          <mxGeometry y="150" width="80" height="50" as="geometry" />
        </mxCell>
        <mxCell id="KDo_k73m9y_OoICIJDoo-24" value="RFC" style="ellipse;whiteSpace=wrap;html=1;strokeColor=#23445d;fillColor=#E5FAE4;" vertex="1" parent="1">
          <mxGeometry x="110" y="130" width="80" height="50" as="geometry" />
        </mxCell>
        <mxCell id="KDo_k73m9y_OoICIJDoo-26" value="Dirección" style="ellipse;whiteSpace=wrap;html=1;strokeColor=#23445d;fillColor=#E5FAE4;" vertex="1" parent="1">
          <mxGeometry x="10" y="250" width="80" height="50" as="geometry" />
        </mxCell>
        <mxCell id="KDo_k73m9y_OoICIJDoo-27" value="" style="endArrow=none;html=1;entryX=0.25;entryY=1;entryDx=0;entryDy=0;exitX=1;exitY=0.5;exitDx=0;exitDy=0;" edge="1" parent="1" source="KDo_k73m9y_OoICIJDoo-26" target="KDo_k73m9y_OoICIJDoo-1">
          <mxGeometry width="50" height="50" relative="1" as="geometry">
            <mxPoint x="270" y="360" as="sourcePoint" />
            <mxPoint x="320" y="310" as="targetPoint" />
          </mxGeometry>
        </mxCell>
        <mxCell id="KDo_k73m9y_OoICIJDoo-28" value="" style="endArrow=none;html=1;entryX=0.754;entryY=1.018;entryDx=0;entryDy=0;entryPerimeter=0;exitX=0;exitY=0.5;exitDx=0;exitDy=0;" edge="1" parent="1" source="KDo_k73m9y_OoICIJDoo-1" target="KDo_k73m9y_OoICIJDoo-23">
          <mxGeometry width="50" height="50" relative="1" as="geometry">
            <mxPoint x="270" y="360" as="sourcePoint" />
            <mxPoint x="320" y="310" as="targetPoint" />
          </mxGeometry>
        </mxCell>
        <mxCell id="KDo_k73m9y_OoICIJDoo-29" value="" style="endArrow=none;html=1;entryX=0;entryY=1;entryDx=0;entryDy=0;exitX=0.5;exitY=0;exitDx=0;exitDy=0;" edge="1" parent="1" source="KDo_k73m9y_OoICIJDoo-1" target="KDo_k73m9y_OoICIJDoo-24">
          <mxGeometry width="50" height="50" relative="1" as="geometry">
            <mxPoint x="270" y="360" as="sourcePoint" />
            <mxPoint x="320" y="310" as="targetPoint" />
          </mxGeometry>
        </mxCell>
        <mxCell id="KDo_k73m9y_OoICIJDoo-30" value="Id cliente" style="ellipse;whiteSpace=wrap;html=1;strokeColor=#23445d;fillColor=#E5FAE4;" vertex="1" parent="1">
          <mxGeometry x="320" y="130" width="80" height="50" as="geometry" />
        </mxCell>
        <mxCell id="KDo_k73m9y_OoICIJDoo-31" value="Nombre" style="ellipse;whiteSpace=wrap;html=1;strokeColor=#23445d;fillColor=#E5FAE4;" vertex="1" parent="1">
          <mxGeometry x="390" y="80" width="80" height="50" as="geometry" />
        </mxCell>
        <mxCell id="KDo_k73m9y_OoICIJDoo-32" value="CURP" style="ellipse;whiteSpace=wrap;html=1;strokeColor=#23445d;fillColor=#E5FAE4;" vertex="1" parent="1">
          <mxGeometry x="480" y="110" width="80" height="50" as="geometry" />
        </mxCell>
        <mxCell id="KDo_k73m9y_OoICIJDoo-33" value="Teléfono" style="ellipse;whiteSpace=wrap;html=1;strokeColor=#23445d;fillColor=#E5FAE4;" vertex="1" parent="1">
          <mxGeometry x="490" y="260" width="80" height="50" as="geometry" />
        </mxCell>
        <mxCell id="KDo_k73m9y_OoICIJDoo-34" value="Sexo" style="ellipse;whiteSpace=wrap;html=1;strokeColor=#23445d;fillColor=#E5FAE4;" vertex="1" parent="1">
          <mxGeometry x="510" y="195" width="80" height="50" as="geometry" />
        </mxCell>
        <mxCell id="KDo_k73m9y_OoICIJDoo-35" value="Placas" style="ellipse;whiteSpace=wrap;html=1;strokeColor=#23445d;fillColor=#E5FAE4;" vertex="1" parent="1">
          <mxGeometry x="120" y="270" width="80" height="50" as="geometry" />
        </mxCell>
        <mxCell id="KDo_k73m9y_OoICIJDoo-36" value="Marca" style="ellipse;whiteSpace=wrap;html=1;strokeColor=#23445d;fillColor=#E5FAE4;" vertex="1" parent="1">
          <mxGeometry x="220" y="270" width="80" height="50" as="geometry" />
        </mxCell>
        <mxCell id="KDo_k73m9y_OoICIJDoo-37" value="Año" style="ellipse;whiteSpace=wrap;html=1;strokeColor=#23445d;fillColor=#E5FAE4;" vertex="1" parent="1">
          <mxGeometry x="90" y="335" width="80" height="50" as="geometry" />
        </mxCell>
        <mxCell id="KDo_k73m9y_OoICIJDoo-38" value="Color" style="ellipse;whiteSpace=wrap;html=1;strokeColor=#23445d;fillColor=#E5FAE4;" vertex="1" parent="1">
          <mxGeometry x="120" y="400" width="80" height="50" as="geometry" />
        </mxCell>
        <mxCell id="KDo_k73m9y_OoICIJDoo-39" value="Id accidente" style="ellipse;whiteSpace=wrap;html=1;strokeColor=#23445d;fillColor=#E5FAE4;" vertex="1" parent="1">
          <mxGeometry x="331.5" y="510" width="80" height="50" as="geometry" />
        </mxCell>
        <mxCell id="KDo_k73m9y_OoICIJDoo-40" value="Fecha" style="ellipse;whiteSpace=wrap;html=1;strokeColor=#23445d;fillColor=#E5FAE4;" vertex="1" parent="1">
          <mxGeometry x="331.5" y="600" width="80" height="50" as="geometry" />
        </mxCell>
        <mxCell id="KDo_k73m9y_OoICIJDoo-41" value="Lugar" style="ellipse;whiteSpace=wrap;html=1;strokeColor=#23445d;fillColor=#E5FAE4;" vertex="1" parent="1">
          <mxGeometry x="190" y="610" width="80" height="50" as="geometry" />
        </mxCell>
        <mxCell id="KDo_k73m9y_OoICIJDoo-42" value="Tipo" style="ellipse;whiteSpace=wrap;html=1;strokeColor=#23445d;fillColor=#E5FAE4;" vertex="1" parent="1">
          <mxGeometry x="110" y="550" width="80" height="50" as="geometry" />
        </mxCell>
        <mxCell id="KDo_k73m9y_OoICIJDoo-43" value="" style="endArrow=none;html=1;entryX=0.754;entryY=1.018;entryDx=0;entryDy=0;entryPerimeter=0;exitX=0;exitY=0;exitDx=0;exitDy=0;" edge="1" parent="1" source="KDo_k73m9y_OoICIJDoo-3" target="KDo_k73m9y_OoICIJDoo-35">
          <mxGeometry width="50" height="50" relative="1" as="geometry">
            <mxPoint x="270" y="360" as="sourcePoint" />
            <mxPoint x="320" y="310" as="targetPoint" />
          </mxGeometry>
        </mxCell>
        <mxCell id="KDo_k73m9y_OoICIJDoo-44" value="" style="endArrow=none;html=1;entryX=1;entryY=0.5;entryDx=0;entryDy=0;exitX=0;exitY=0.5;exitDx=0;exitDy=0;" edge="1" parent="1" source="KDo_k73m9y_OoICIJDoo-3" target="KDo_k73m9y_OoICIJDoo-37">
          <mxGeometry width="50" height="50" relative="1" as="geometry">
            <mxPoint x="340" y="450" as="sourcePoint" />
            <mxPoint x="396.5" y="403.5" as="targetPoint" />
          </mxGeometry>
        </mxCell>
        <mxCell id="KDo_k73m9y_OoICIJDoo-45" value="" style="endArrow=none;html=1;entryX=0.5;entryY=0;entryDx=0;entryDy=0;exitX=0.5;exitY=1;exitDx=0;exitDy=0;" edge="1" parent="1" source="KDo_k73m9y_OoICIJDoo-36" target="KDo_k73m9y_OoICIJDoo-3">
          <mxGeometry width="50" height="50" relative="1" as="geometry">
            <mxPoint x="270" y="360" as="sourcePoint" />
            <mxPoint x="320" y="310" as="targetPoint" />
          </mxGeometry>
        </mxCell>
        <mxCell id="KDo_k73m9y_OoICIJDoo-46" value="" style="endArrow=none;html=1;entryX=0;entryY=0;entryDx=0;entryDy=0;exitX=0.75;exitY=1;exitDx=0;exitDy=0;" edge="1" parent="1" source="KDo_k73m9y_OoICIJDoo-2" target="KDo_k73m9y_OoICIJDoo-33">
          <mxGeometry width="50" height="50" relative="1" as="geometry">
            <mxPoint x="270" y="360" as="sourcePoint" />
            <mxPoint x="320" y="310" as="targetPoint" />
          </mxGeometry>
        </mxCell>
        <mxCell id="KDo_k73m9y_OoICIJDoo-47" value="" style="endArrow=none;html=1;entryX=1;entryY=0.5;entryDx=0;entryDy=0;exitX=0;exitY=0.5;exitDx=0;exitDy=0;" edge="1" parent="1" source="KDo_k73m9y_OoICIJDoo-34" target="KDo_k73m9y_OoICIJDoo-2">
          <mxGeometry width="50" height="50" relative="1" as="geometry">
            <mxPoint x="270" y="360" as="sourcePoint" />
            <mxPoint x="320" y="310" as="targetPoint" />
          </mxGeometry>
        </mxCell>
        <mxCell id="KDo_k73m9y_OoICIJDoo-48" value="" style="endArrow=none;html=1;entryX=0.75;entryY=0;entryDx=0;entryDy=0;exitX=0;exitY=1;exitDx=0;exitDy=0;" edge="1" parent="1" source="KDo_k73m9y_OoICIJDoo-32" target="KDo_k73m9y_OoICIJDoo-2">
          <mxGeometry width="50" height="50" relative="1" as="geometry">
            <mxPoint x="270" y="360" as="sourcePoint" />
            <mxPoint x="320" y="310" as="targetPoint" />
          </mxGeometry>
        </mxCell>
        <mxCell id="KDo_k73m9y_OoICIJDoo-49" value="" style="endArrow=none;html=1;entryX=0.5;entryY=0;entryDx=0;entryDy=0;exitX=0.5;exitY=1;exitDx=0;exitDy=0;" edge="1" parent="1" source="KDo_k73m9y_OoICIJDoo-31" target="KDo_k73m9y_OoICIJDoo-2">
          <mxGeometry width="50" height="50" relative="1" as="geometry">
            <mxPoint x="270" y="360" as="sourcePoint" />
            <mxPoint x="320" y="310" as="targetPoint" />
          </mxGeometry>
        </mxCell>
        <mxCell id="KDo_k73m9y_OoICIJDoo-50" value="" style="endArrow=none;html=1;entryX=0.25;entryY=0;entryDx=0;entryDy=0;exitX=1;exitY=1;exitDx=0;exitDy=0;" edge="1" parent="1" source="KDo_k73m9y_OoICIJDoo-30" target="KDo_k73m9y_OoICIJDoo-2">
          <mxGeometry width="50" height="50" relative="1" as="geometry">
            <mxPoint x="270" y="360" as="sourcePoint" />
            <mxPoint x="320" y="310" as="targetPoint" />
          </mxGeometry>
        </mxCell>
        <mxCell id="KDo_k73m9y_OoICIJDoo-52" value="" style="endArrow=none;html=1;exitX=0;exitY=0.5;exitDx=0;exitDy=0;" edge="1" parent="1" source="KDo_k73m9y_OoICIJDoo-39">
          <mxGeometry width="50" height="50" relative="1" as="geometry">
            <mxPoint x="270" y="360" as="sourcePoint" />
            <mxPoint x="320" y="550" as="targetPoint" />
          </mxGeometry>
        </mxCell>
        <mxCell id="KDo_k73m9y_OoICIJDoo-53" value="" style="endArrow=none;html=1;entryX=1;entryY=0.75;entryDx=0;entryDy=0;exitX=0.5;exitY=0;exitDx=0;exitDy=0;" edge="1" parent="1" source="KDo_k73m9y_OoICIJDoo-40" target="KDo_k73m9y_OoICIJDoo-4">
          <mxGeometry width="50" height="50" relative="1" as="geometry">
            <mxPoint x="270" y="360" as="sourcePoint" />
            <mxPoint x="320" y="310" as="targetPoint" />
          </mxGeometry>
        </mxCell>
        <mxCell id="KDo_k73m9y_OoICIJDoo-54" value="" style="endArrow=none;html=1;entryX=0.5;entryY=0;entryDx=0;entryDy=0;exitX=0.5;exitY=1;exitDx=0;exitDy=0;" edge="1" parent="1" source="KDo_k73m9y_OoICIJDoo-4" target="KDo_k73m9y_OoICIJDoo-41">
          <mxGeometry width="50" height="50" relative="1" as="geometry">
            <mxPoint x="270" y="360" as="sourcePoint" />
            <mxPoint x="320" y="310" as="targetPoint" />
          </mxGeometry>
        </mxCell>
        <mxCell id="KDo_k73m9y_OoICIJDoo-55" value="" style="endArrow=none;html=1;entryX=1;entryY=0;entryDx=0;entryDy=0;exitX=0;exitY=0.5;exitDx=0;exitDy=0;" edge="1" parent="1" source="KDo_k73m9y_OoICIJDoo-4" target="KDo_k73m9y_OoICIJDoo-42">
          <mxGeometry width="50" height="50" relative="1" as="geometry">
            <mxPoint x="270" y="360" as="sourcePoint" />
            <mxPoint x="320" y="310" as="targetPoint" />
          </mxGeometry>
        </mxCell>
        <mxCell id="KDo_k73m9y_OoICIJDoo-56" value="" style="endArrow=none;html=1;exitX=0;exitY=1;exitDx=0;exitDy=0;" edge="1" parent="1" source="KDo_k73m9y_OoICIJDoo-3" target="KDo_k73m9y_OoICIJDoo-38">
          <mxGeometry width="50" height="50" relative="1" as="geometry">
            <mxPoint x="270" y="360" as="sourcePoint" />
            <mxPoint x="320" y="310" as="targetPoint" />
          </mxGeometry>
        </mxCell>
      </root>
    </mxGraphModel>
  </diagram>
</mxfile>
